<?xml version="1.0" encoding="utf-8"?>
<!-- Generator: Adobe Illustrator 28.0.0, SVG Export Plug-In . SVG Version: 6.00 Build 0)  -->
<svg version="1.1" id="Layer_1" xmlns="http://www.w3.org/2000/svg" xmlns:xlink="http://www.w3.org/1999/xlink" x="0px" y="0px"
	 viewBox="0 0 341 126.6" style="enable-background:new 0 0 341 126.6;" xml:space="preserve">
<style type="text/css">
	.st0{fill:#FFFFFF;}
</style>
<g>
	<path class="st0" d="M70.9,68.1c2.1,2.5,4.2,5,6.3,7.6c3.6-3.5,7.1-7,10.7-10.5c10.5,13.2,20.9,26.4,31.4,39.7
		c-13.5,0-26.9,0-40.4,0c5-5.9,10-11.7,15-17.5c-1.7-2-3.3-4-5.3-6.4c-0.2,0.4-0.3,0.7-0.5,1c-6.6,7.5-13.2,14.9-19.8,22.4
		c-0.3,0.3-0.7,0.6-1,0.6c-4.7,0-9.4,0-14.4,0c7.5-8.8,14.9-17.5,22.3-26.3c-1.5-1.7-2.9-3.3-4.3-5c-0.4,0.4-0.7,0.7-1,1
		c-9,9.8-17.9,19.6-26.9,29.5c-0.5,0.5-1,0.8-1.7,0.8c-5.1,0-10.2,0-15.3,0c-0.3,0-0.7,0-1.3,0c7.7-8.7,15.3-17.2,22.9-25.8
		c2.2,2.6,4.3,5.2,6.5,7.8C59.7,80.7,65.3,74.5,70.9,68.1z"/>
	<path class="st0" d="M169.4,70.7c-1.5,0-3,0-4.6,0c0-0.4,0-0.7,0-1.1c0.2,0,0.4,0,0.5,0c7.2,0,14.4,0,21.6,0.1c2.5,0,5,0.4,7.3,1.4
		c4,1.7,5.9,5.2,4.9,9.1c-0.6,2.3-2,3.9-4.1,4.7c-2.1,0.8-4.3,1.2-6.4,1.8c-0.2,0.1-0.4,0-0.6,0.1c-0.2,0.1-0.4,0.3-0.6,0.4
		c0.2,0.1,0.4,0.3,0.6,0.4c1.1,0.3,2.3,0.5,3.4,0.7c4.7,1.2,6.6,3.5,7.1,8.3c0.1,1.6,0.3,3.1,0.4,4.7c0,0.4,0.1,0.8,0.2,1.2
		c0.6,2.2,1.9,2.9,4.1,2.2c0.2,0.3,0.3,0.6,0.5,1c-2.3,1.4-4.7,1.8-7.2,1.6c-0.4,0-0.9-0.1-1.3-0.2c-2.3-0.4-4-1.6-4.6-3.9
		c-0.5-2.1-0.8-4.3-1.1-6.5c-0.2-1.2-0.3-2.5-0.5-3.7c-0.5-3.6-1.8-4.9-5.4-5.3c-1.9-0.2-3.8,0-5.8,0c0,5.9,0,11.7,0,17.7
		c1.5,0,3,0,4.6,0c0,0.4,0,0.7,0,1.1c-6,0-11.9,0-17.9,0c0-0.3,0-0.7,0-1.1c1.5,0,3,0,4.6,0C169.4,93.9,169.4,82.4,169.4,70.7z
		 M178.1,86.6c2.2,0,4.3,0.1,6.3,0c3.5-0.3,5.2-2.2,5.3-5.8c0.1-1.5,0-3.1,0-4.6c-0.1-2.7-1.4-4.6-4.1-5.1c-2.5-0.4-5-0.4-7.6-0.6
		C178.1,76.1,178.1,81.3,178.1,86.6z"/>
	<path class="st0" d="M184.1,25.8c-1.6,0-3.1,0-4.6,0c0-0.4,0-0.7,0-1c0.2,0,0.3-0.1,0.5-0.1c6.5,0,13-0.1,19.5,0.1
		c2.5,0.1,5,0.4,7.4,1c1.4,0.3,2.8,1.1,3.9,2c3.2,2.5,3.2,6.9,0.1,9.6c-2.1,1.9-4.7,2.8-7.4,3.3c-0.7,0.1-1.5,0.3-2.2,0.5
		c0,0.1,0,0.2,0,0.3c0.3,0.1,0.7,0.2,1,0.3c2.3,0.8,4.7,1.4,6.9,2.5c3.2,1.5,5.2,4.1,5,7.8c-0.1,3.9-2.2,6.6-5.7,8.3
		c-2.6,1.2-5.3,1.4-8.1,1.4c-6.8,0-13.6,0-20.4,0c-0.2,0-0.3,0-0.6,0c0-0.3,0-0.7,0-1.1c1.5,0,3,0,4.6,0
		C184.1,49,184.1,37.5,184.1,25.8z M192.8,60.7c2.4-0.1,4.6-0.1,6.8-0.4c2.7-0.3,4.7-2.3,4.8-5c0.2-2.7,0.2-5.5,0-8.2
		c-0.2-2.6-1.7-4.3-4.2-5.1c-2.4-0.8-4.9-0.4-7.5-0.5C192.8,48,192.8,54.2,192.8,60.7z M192.8,40.6c2.3-0.1,4.6,0,6.8-0.5
		c2.1-0.4,3.8-1.8,4-4.2c0.2-1.9,0.2-3.9,0-5.8c-0.2-2.1-1.5-3.7-3.6-4.1c-2.4-0.4-4.8-0.3-7.3-0.5
		C192.8,30.8,192.8,35.6,192.8,40.6z"/>
	<path class="st0" d="M174.5,61.6c-10.9,0-21.6,0-32.4,0c0-0.3,0-0.6-0.1-1c1.6,0,3.1,0,4.7,0c0-11.6,0-23.1,0-34.7
		c-1.5,0-3,0-4.6,0c0-0.4-0.1-0.7-0.1-1.1c10.6,0,21,0,31.7,0c0.1,3.8,0.3,7.7,0.4,11.6c-0.5,0-0.9,0-1.1,0c-0.7-1.8-1.3-3.5-2-5.1
		c-1.4-3-4-4.7-7.2-5.1c-2.7-0.4-5.5-0.3-8.4-0.4c0,5.1,0,10,0,15c2.7-0.2,5.6,0.8,7.8-1.7c1.2-1.4,1.8-3,1.9-4.8c0.4,0,0.8,0,1.3,0
		c0,4.8,0,9.6,0,14.5c-0.4,0-0.9,0-1.4,0c-0.2-2.3-0.5-4.5-2.7-5.9c-2.2-1.4-4.6-0.7-7-0.9c0,6.3,0,12.4,0,18.7c2.3,0,4.6,0.2,6.8,0
		c6.2-0.8,9.9-4.4,11.5-10.4c0-0.1,0.1-0.2,0.1-0.4c0.4,0,0.8,0,1.3,0C174.9,53.6,174.7,57.6,174.5,61.6z"/>
	<path class="st0" d="M239.5,106.5c-10.9,0-21.6,0-32.4,0c0-0.3,0-0.7,0-1.1c1.5,0,3,0,4.6,0c0-11.6,0-23.1,0-34.7c-1.5,0-3,0-4.6,0
		c0-0.4,0-0.7-0.1-1.1c10.5,0,21,0,31.7,0c0.1,3.8,0.3,7.7,0.4,11.6c-0.5,0-0.9,0-1.1,0c-0.7-1.8-1.3-3.5-2.1-5.2
		c-1.4-3-4-4.6-7.2-5.1c-2.7-0.4-5.4-0.3-8.3-0.4c0,5.1,0,10,0,14.9c4.2,1.3,8.2-0.4,9.3-4.2c0.2-0.7,0.3-1.4,0.4-2.2
		c0.4,0,0.8,0,1.2,0c0,4.8,0,9.6,0,14.5c-0.4,0-0.8,0-1.3,0c-0.1-0.6-0.2-1.2-0.3-1.9c-0.4-2.6-2.2-4.6-4.9-4.8c-1.5-0.2-3,0-4.6,0
		c0,6.2,0,12.4,0,18.5c0,0,0.1,0.1,0.1,0.1c2.6-0.1,5.3,0.2,7.8-0.3c5.3-1,8.6-4.4,10.2-9.5c0.1-0.3,0.2-0.7,0.3-1.1
		c0.4,0,0.8,0,1.4,0C239.9,98.5,239.7,102.5,239.5,106.5z"/>
	<path class="st0" d="M101,24.8c0.2,3.9,0.3,7.7,0.5,11.5c-1,0.3-1.4,0.1-1.6-0.9c-0.7-3.4-2.1-6.3-5.3-8.1
		c-1.7-0.9-3.5-1.3-5.4-1.4c-1.9-0.1-3.8,0-5.7,0c-0.6,0-0.8,0.2-0.8,0.8c0,4.4,0,8.9,0,13.3c0,0.7,0.3,0.8,0.9,0.8
		c0.9,0,1.8-0.1,2.7,0c3.5,0.3,5.8-2.9,6.1-5.3c0.1-0.4,0.1-0.8,0.2-1.3c0.4,0,0.8,0,1.3,0c0,4.8,0,9.6,0,14.4
		c-1.3,0.2-1.3,0.2-1.4-1c-0.4-3.8-2.5-5.7-6.3-5.7c-0.9,0-1.7,0-2.6,0c-0.6,0-0.8,0.2-0.8,0.8c0,5.7,0,11.4,0,17.1
		c0,0.3,0.4,0.8,0.6,0.8c2.6-0.1,5.3,0.2,7.8-0.4c5.3-1.1,8.5-4.7,9.9-9.9c0.1-0.2,0.1-0.4,0.2-0.7c0.4,0,0.8,0,1.3,0
		c-0.2,4-0.4,8-0.6,12c-10.9,0-21.6,0-32.4,0c0-0.3,0-0.7,0-1.1c1.5,0,3,0,4.6,0c0-11.6,0-23.1,0-34.7c-1.5,0-3,0-4.6,0
		c0-0.4,0-0.7-0.1-1C79.9,24.8,90.4,24.8,101,24.8z"/>
	<path class="st0" d="M267.5,79.1c1.3-0.2,1.3-0.2,1.3,1c0,4.1,0,8.3,0,12.4c0,0.3,0,0.7-0.1,1c-0.4,0-0.8,0-1.3,0
		c-0.1-0.5-0.2-1.1-0.2-1.7c-0.4-2.7-1.9-4.6-4.6-5c-1.6-0.2-3.2,0-4.9,0c0,6.2,0,12.3,0,18.6c4-0.1,8,0.5,11.7-1.6
		c3.3-2,5.6-4.8,6.5-8.6c0.1-0.2,0.1-0.4,0.2-0.7c0.4,0,0.8,0,1.3,0c-0.2,4-0.4,8-0.6,12c-10.9,0-21.6,0-32.5,0c0-0.3,0-0.6,0-1
		c1.5,0,3,0,4.6,0c0-11.6,0-23.2,0-34.8c-1.5,0-3,0-4.6,0c0-0.4,0-0.7,0-1.1c10.5,0,20.9,0,31.6,0c0.1,3.8,0.3,7.7,0.4,11.6
		c-0.5,0-0.9,0-1.4,0c-0.1-0.6-0.3-1.2-0.4-1.8c-1.6-5.7-5-8.6-11-8.8c-1.9-0.1-3.9,0-5.9,0c0,5,0,9.9,0,14.9c1.7,0,3.3,0.2,4.9,0
		c2.2-0.3,4.1-2.5,4.6-4.9C267.4,80.1,267.5,79.6,267.5,79.1z"/>
	<path class="st0" d="M287.9,75.6c0,0.3,0,0.7,0,1c0,7.2,0,14.5,0,21.7c0,1,0.1,1.9,0.2,2.9c0.3,2.5,1.7,3.9,4.2,4.3
		c0,0.3,0,0.6,0,1c-3.5,0-6.9,0-10.4,0c-0.2-0.6-0.3-1,0.5-1.2c2.9-0.5,3.9-2.6,4.1-5.2c0.1-1,0.2-2,0.2-3c0-7.1,0-14.3,0-21.4
		c0-0.1,0-0.1,0-0.2c0-3.5-0.7-4.2-4.1-4.8c-0.1,0-0.3-0.1-0.4-0.1c0-0.3,0-0.6,0-1c0.3,0,0.7,0,1,0c3.6,0,7.3,0,10.9,0
		c0.7,0,1.1,0.2,1.5,0.8c5.6,7.3,11.3,14.6,16.9,21.9c0.2,0.3,0.5,0.6,0.9,1.1c0.1-0.5,0.1-0.7,0.1-1c0-5.1,0-10.2,0-15.3
		c0-0.6-0.1-1.3-0.2-1.9c-0.4-2.2-1.6-3.7-3.9-4.2c-0.7-0.1-0.9-0.5-0.6-1.2c3.4,0,6.9,0,10.4,0c0,0.3,0,0.6,0,1
		c-2.7,0.5-3.9,1.8-4.2,4.5c-0.1,1-0.2,1.9-0.2,2.9c0,9.4,0,18.8,0,28.2c0,0.4,0,0.8,0,1.2c-1.1,0.3-1.9,0.1-2.6-0.9
		c-7.7-10-15.4-20-23.2-29.9c-0.3-0.3-0.5-0.7-0.8-1C288.1,75.5,288,75.6,287.9,75.6z"/>
	<path class="st0" d="M153.1,68.8c0.4,0,0.8,0,1.3,0c0,4.2,0,8.4,0,12.7c-0.2,0-0.5,0-0.9,0.1c-0.1-0.3-0.2-0.6-0.3-0.9
		c-0.6-2.6-1.7-4.9-3.3-7c-2.5-3.3-6-4.5-9.8-3.4c-3.5,1.1-5.3,3.7-5.9,7.2c-0.2,1.4-0.4,2.8-0.4,4.2c0,4.8,0,9.7,0.2,14.5
		c0.1,2.4,0.7,4.7,2,6.9c2.2,3.6,6.6,4.4,9.7,1.7c1-0.9,1.8-2,1.8-3.4c0.1-2.7,0.1-5.4,0.2-8.1c0-0.2,0-0.5-0.1-0.8
		c-1.5,0-3,0-4.6,0c0-0.4,0-0.7,0-1c5.8,0,11.6,0,17.4,0c0,0.3,0,0.6,0,1c-1.4,0-2.7,0-4.3,0c0,1.4,0.2,2.6,0,3.8
		c-0.9,5.9-4,9.2-10.2,10.6c-7.3,1.7-13.1-0.6-17.7-6.4c-8.1-10.1-3.5-23.4,4.2-28.5c4.6-3,9.6-3.9,15-2.2c0.7,0.2,1.5,0.5,2.2,0.7
		C151.6,71,152.4,70.6,153.1,68.8z"/>
	<path class="st0" d="M267.8,60.5c0,0.5,0,0.8-0.1,1.1c-6,0-11.9,0-17.9,0c0-0.3,0-0.6,0-1c1.5,0,3,0,4.6,0c0-11.6,0-23.1,0-34.6
		c-4.5-1-9.5,1.9-11.3,10.6c-0.4,0-0.8,0-1.3,0c0.1-3.9,0.2-7.8,0.3-11.8c11.1,0,22.2,0,33.5,0c0.1,3.9,0.2,7.8,0.3,11.8
		c-0.5,0-0.9,0-1.4,0c-0.3-0.9-0.5-1.9-0.8-2.8c-0.6-2-1.6-3.7-3-5.3c-2-2.3-4.6-2.9-7.6-2.7c0,11.5,0,23,0,34.7
		C264.6,60.5,266.1,60.5,267.8,60.5z"/>
	<path class="st0" d="M124.8,24.7c0,0.4,0,0.7-0.1,1c-1.6,0-3,0-4.6,0c0,11.6,0,23.1,0,34.6c7.1,1,14.4-1.1,16.9-9.9
		c0.3-1,0.7-1.1,1.6-0.9c-0.2,4-0.4,7.9-0.6,11.9c-10.4,0-20.8,0-31.3,0c0-0.3,0-0.6-0.1-1c1.6,0,3.1,0,4.7,0c0-11.6,0-23.1,0-34.7
		c-1.5,0-3,0-4.6,0c0-0.4,0-0.8,0-1.1C112.8,24.7,118.8,24.7,124.8,24.7z"/>
	<path class="st0" d="M54.7,25.7c0-0.3,0-0.6-0.1-1c3.8,0,7.5,0,11.3,0c0.2,0.6,0.3,1-0.6,1.1c-1.7,0.2-2.7,1.3-3.4,2.7
		c-0.5,0.9-0.9,1.9-1.2,2.9c-3.2,9.7-6.5,19.4-9.7,29.1c-0.3,0.9-0.6,1.3-1.6,1.2c-2.2-0.1-2.2,0-3-2.1c-4-10.8-8.1-21.6-12.1-32.5
		c-0.4-1.1-0.9-1.5-2-1.3c-0.8,0.1-1.7,0-2.6,0c0-0.4,0-0.7,0-1.1c5.7,0,11.4,0,17.2,0c0,0.3,0,0.6,0.1,1c-1.5,0-2.9,0-4.4,0
		c3.3,8.8,6.5,17.5,9.9,26.4c0.2-0.6,0.4-0.8,0.5-1.1c2-6.2,4-12.4,6-18.7c0.3-0.8,0.4-1.7,0.5-2.5c0.1-2.4-1.4-4-3.8-4.1
		C55.3,25.8,55,25.8,54.7,25.7z"/>
	<path class="st0" d="M237.9,24.8c0,0.4,0,0.6,0,1c-1.5,0-3,0-4.6,0c0,0.4-0.1,0.8-0.1,1.1c0,10.8,0,21.6,0,32.5
		c0,0.9,0.2,1.3,1.2,1.2c1.2-0.1,2.3,0,3.6,0c0,0.4,0,0.7,0,1.1c-6,0-11.9,0-17.9,0c0-0.3,0-0.6,0-1c1.5,0,3,0,4.6,0
		c0-11.6,0-23.1,0-34.8c-1.5,0-3,0-4.6,0c0-0.4,0-0.7,0-1.1C225.9,24.8,231.9,24.8,237.9,24.8z"/>
</g>
</svg>
